<svg width="100" height="101" viewBox="0 0 100 101" fill="none" xmlns="http://www.w3.org/2000/svg">
<path d="M100 50.9097C100 78.5239 77.6146 100.909 50.0003 100.909C22.3861 100.909 0 78.5239 0 50.9097C0 23.2955 22.3861 0.910034 50.0003 0.910034C77.6146 0.910034 100 23.2955 100 50.9097Z" fill="#CDEDE3"/>
<mask id="mask0_11_13" style="mask-type:luminance" maskUnits="userSpaceOnUse" x="0" y="0" width="100" height="101">
<path d="M0 50.9097C0 78.5239 22.3854 100.909 49.9997 100.909C77.6139 100.909 99.9993 78.5239 99.9993 50.9097C100 23.2955 77.6146 0.909363 50.0003 0.909363C22.3861 0.909363 0 23.2955 0 50.9097Z" fill="white"/>
</mask>
<g mask="url(#mask0_11_13)">
<path d="M76.212 30.2853H23.7802V100.908H76.212V30.2853Z" fill="#141720"/>
</g>
<mask id="mask1_11_13" style="mask-type:luminance" maskUnits="userSpaceOnUse" x="0" y="0" width="100" height="101">
<path d="M0 50.9097C0 78.5239 22.3854 100.909 49.9997 100.909C77.6139 100.909 99.9993 78.5239 99.9993 50.9097C100 23.2955 77.6146 0.909363 50.0003 0.909363C22.3861 0.909363 0 23.2955 0 50.9097Z" fill="white"/>
</mask>
<g mask="url(#mask1_11_13)">
<path d="M78.9884 107.608V107.613H21.0156V107.608C21.0156 104.334 21.5569 101.181 22.5623 98.2474C22.7425 97.7169 22.9394 97.1924 23.1524 96.6733V96.6679C23.344 96.187 23.557 95.7114 23.7807 95.2472C23.7975 95.209 23.8136 95.1762 23.8303 95.138C24.4365 93.8593 25.1412 92.6294 25.9282 91.4605C26.3764 90.7934 26.8573 90.1376 27.3604 89.5093C27.71 89.0779 28.065 88.6573 28.4308 88.2527C28.6116 88.045 28.8025 87.8427 28.9941 87.6404C29.185 87.4442 29.3766 87.2472 29.5735 87.0503C29.5896 87.0342 29.6117 87.0121 29.6278 87.0014C30.5897 86.0395 31.6226 85.1607 32.7044 84.3515C33.2563 83.9416 33.8136 83.5591 34.393 83.188C34.464 83.1384 34.5404 83.0949 34.6168 83.0514C35.1198 82.7285 35.6336 82.4284 36.1581 82.1437C36.1634 82.1384 36.1688 82.1384 36.1741 82.1384H36.1795L36.1855 82.133C36.3764 82.0352 36.562 81.9253 36.7482 81.8054C36.7917 81.7833 36.8299 81.7612 36.8735 81.7344C37.0269 81.6413 37.1796 81.5429 37.333 81.4444C37.3819 81.4116 37.4314 81.3788 37.4803 81.352C37.6116 81.2642 37.7422 81.1765 37.8735 81.0787C38.0376 80.9688 38.2018 80.8489 38.3598 80.729C38.3598 80.729 38.3598 80.723 38.3652 80.729C38.3712 80.723 38.3766 80.7123 38.3819 80.7123C38.5347 80.6031 38.6881 80.4885 38.8354 80.368L38.8408 80.3626C39.7538 79.6358 40.6005 78.8213 41.3601 77.9311C42.0433 77.1333 42.6609 76.2752 43.1961 75.3622C43.7916 74.3682 44.2946 73.3132 44.6878 72.2093C44.8848 71.652 45.0596 71.084 45.2016 70.4992C45.3108 70.0892 45.3985 69.6739 45.4749 69.2533C45.6604 68.2043 45.7589 67.1218 45.7589 66.0186L49.9829 66.0401H50.0265L50.7425 66.0454L54.3275 66.0622C54.3275 67.144 54.42 68.2043 54.6008 69.2372C54.6718 69.6632 54.7643 70.0839 54.8734 70.4992C55.0101 71.0732 55.1796 71.6359 55.3711 72.1825C55.7643 73.2971 56.2614 74.3628 56.8575 75.3622C57.3438 76.1928 57.8958 76.9745 58.5073 77.712C59.3051 78.6907 60.2074 79.5755 61.1961 80.368C61.3381 80.4885 61.4801 80.6031 61.6275 80.7069C61.6717 80.7504 61.7206 80.7833 61.7701 80.8107C61.7755 80.8214 61.7809 80.8268 61.7916 80.8322C61.8137 80.8436 61.8358 80.8543 61.8519 80.871C61.8626 80.8764 61.874 80.8817 61.8847 80.8925C61.9282 80.9306 61.9718 80.9635 62.0213 80.9963C62.1526 81.084 62.2779 81.1765 62.4092 81.2642C62.4527 81.297 62.4909 81.3245 62.5351 81.352L62.8298 81.5482C62.9336 81.6139 63.0321 81.6742 63.1359 81.7344C63.2505 81.7994 63.3603 81.8711 63.4749 81.9361C63.5841 82.0071 63.6986 82.0727 63.8138 82.133C63.852 82.1437 63.8795 82.1658 63.9116 82.1826L64.0925 82.2804C64.1307 82.3025 64.1688 82.3246 64.2017 82.346C64.349 82.4284 64.491 82.5101 64.633 82.5918C64.8682 82.7285 65.1086 82.8705 65.3384 83.0185C65.5621 83.1552 65.7865 83.2972 66.0049 83.4553C66.4584 83.7453 66.9011 84.0621 67.3325 84.3897C67.3325 84.3951 67.3379 84.3951 67.3379 84.3951H67.3439C67.8958 84.805 68.431 85.2424 68.9555 85.6905C69.4472 86.1112 69.9174 86.5486 70.3763 87.0074C70.4091 87.0349 70.4365 87.0617 70.4694 87.0945C71.8084 88.4282 73.0154 89.8871 74.0704 91.4612C74.8736 92.6522 75.5896 93.9088 76.2126 95.2204C77.9937 98.9735 78.9884 103.171 78.9884 107.608Z" fill="#ECC19C"/>
</g>
<mask id="mask2_11_13" style="mask-type:luminance" maskUnits="userSpaceOnUse" x="0" y="0" width="100" height="101">
<path d="M0 50.9097C0 78.5239 22.3854 100.909 49.9997 100.909C77.6139 100.909 99.9993 78.5239 99.9993 50.9097C100 23.2955 77.6146 0.909363 50.0003 0.909363C22.3861 0.909363 0 23.2955 0 50.9097Z" fill="white"/>
</mask>
<g mask="url(#mask2_11_13)">
<path d="M78.9884 107.608H21.0156C21.0156 104.334 21.5569 101.181 22.5623 98.2474C22.7425 97.7169 22.9394 97.1924 23.1524 96.6733V96.6679C23.344 96.187 23.557 95.7114 23.7807 95.2472C23.7975 95.209 23.8136 95.1762 23.8303 95.138C24.4365 93.8593 25.1412 92.6295 25.9282 91.4606C26.3764 90.7934 26.8573 90.1376 27.3604 89.5093C27.71 89.078 28.065 88.6573 28.4308 88.2527C28.6116 88.0451 28.8025 87.8428 28.9941 87.6405C29.185 87.4442 29.3766 87.2473 29.5735 87.0503C29.5896 87.0343 29.6117 87.0122 29.6278 87.0014C30.5897 86.0396 31.6226 85.1607 32.7044 84.3516C33.2563 83.9416 33.8136 83.5591 34.393 83.188C34.464 83.1385 34.5404 83.0949 34.6168 83.0514C35.1198 82.7285 35.6336 82.4284 36.1581 82.1438C36.1581 82.1384 36.1634 82.1384 36.1634 82.1384C36.1688 82.133 36.1688 82.133 36.1741 82.1384H36.1795V82.133H36.1855C36.3764 82.0239 36.562 81.9147 36.7482 81.8055C36.7917 81.7834 36.8299 81.7613 36.8735 81.7345C37.0269 81.6414 37.1796 81.5429 37.333 81.4444C37.4803 81.346 37.6277 81.2421 37.7751 81.1444C37.8354 81.1001 37.8956 81.0566 37.9559 81.0131C38.0926 80.92 38.2292 80.8215 38.3598 80.723C38.3652 80.7177 38.3766 80.7123 38.3819 80.7123C38.3873 80.7069 38.3927 80.7016 38.398 80.6962C38.54 80.5864 38.6827 80.4718 38.8247 80.3573L38.8301 80.3519C38.8354 80.3573 38.8354 80.3573 38.8408 80.3626C39.1523 80.6795 39.4691 80.9856 39.808 81.275C39.9721 81.417 40.1416 81.5536 40.3111 81.6903C40.3164 81.7017 40.3164 81.7017 40.3218 81.6956C40.4806 81.8216 40.6333 81.9421 40.792 82.062C40.8302 82.0895 40.863 82.117 40.9012 82.1384C41.0653 82.2536 41.2288 82.3682 41.3929 82.4773C41.7646 82.7232 42.1471 82.9529 42.535 83.1659C42.7319 83.2751 42.9282 83.3789 43.1304 83.4774C43.3381 83.5812 43.5458 83.6743 43.7534 83.7614C43.7809 83.7835 43.8083 83.7942 43.8358 83.7996C44.0702 83.9034 44.3054 84.0019 44.5458 84.0896C44.7863 84.1767 45.0321 84.2645 45.278 84.3408C45.4642 84.4011 45.6497 84.4554 45.8406 84.505C46.0101 84.5538 46.1796 84.5974 46.349 84.6356C46.3872 84.6523 46.4254 84.6577 46.4696 84.663C47.0216 84.789 47.5896 84.8874 48.169 84.9584C48.3653 84.9799 48.5622 85.002 48.7645 85.018C49.1691 85.0509 49.573 85.0676 49.9829 85.0676H50.0265C50.147 85.0676 50.2669 85.0676 50.3875 85.0623C50.3929 85.0676 50.3982 85.0676 50.4036 85.0623C50.4478 85.0676 50.4913 85.0676 50.5349 85.0623C50.5456 85.0676 50.557 85.0623 50.5677 85.0569C50.628 85.0569 50.6822 85.0509 50.7425 85.0455C50.9991 85.0348 51.2509 85.018 51.5021 84.9966C51.7205 84.9745 51.9395 84.947 52.1525 84.9202C52.1854 84.9202 52.2122 84.9203 52.2396 84.9142C52.2671 84.9089 52.2946 84.9089 52.322 84.8981C52.4915 84.876 52.6549 84.8432 52.819 84.8164C52.8358 84.8164 52.8572 84.8104 52.874 84.8104C52.9008 84.8104 52.9282 84.805 52.9503 84.7943C52.9724 84.789 52.9939 84.7836 53.016 84.7782C53.0803 84.7662 53.1432 84.7528 53.2069 84.7394C53.294 84.722 53.381 84.7039 53.4674 84.6845C53.5525 84.6664 53.6376 84.649 53.7206 84.6248C53.9611 84.5646 54.2016 84.5049 54.4367 84.4339C54.6718 84.3629 54.9063 84.2913 55.136 84.2095C55.4964 84.0896 55.8461 83.953 56.1904 83.805C56.4201 83.7072 56.6385 83.6087 56.8629 83.4935C57.0538 83.4064 57.24 83.3079 57.4202 83.2041C57.5568 83.1331 57.6881 83.0568 57.8187 82.9804C57.9668 82.9034 58.1088 82.8163 58.2508 82.7232C58.289 82.7017 58.3271 82.6796 58.3653 82.6575C58.4859 82.5812 58.6004 82.5048 58.715 82.4224C58.7806 82.3842 58.8409 82.3407 58.9012 82.2971C58.9394 82.275 58.9722 82.2476 59.005 82.2261C59.1631 82.117 59.3165 82.0018 59.4692 81.8818C59.4746 81.8818 59.4799 81.8818 59.4799 81.8765C59.5128 81.8544 59.5516 81.8269 59.5838 81.7995C59.6554 81.7452 59.7318 81.6849 59.8028 81.6193C59.9174 81.5322 60.0319 81.4391 60.1418 81.346C60.5075 81.0399 60.8571 80.7123 61.1907 80.3734L61.2014 80.3626C61.3877 80.5154 61.5786 80.6634 61.7701 80.8108C61.7755 80.8215 61.7809 80.8268 61.7916 80.8322C61.8137 80.8436 61.8358 80.8543 61.8519 80.8711C61.8626 80.8764 61.874 80.8818 61.8847 80.8925C62.0541 81.0184 62.229 81.1444 62.4092 81.2643C62.4527 81.2971 62.4909 81.3245 62.5351 81.352C62.7314 81.4826 62.9336 81.6086 63.1359 81.7345C63.3603 81.8711 63.5894 82.0017 63.8192 82.1277C63.8574 82.1384 63.8848 82.1605 63.9176 82.1766C63.9773 82.2094 64.0375 82.2476 64.0925 82.2804C64.1307 82.3025 64.1688 82.3246 64.2017 82.346C64.349 82.4284 64.491 82.5102 64.633 82.5919C64.8682 82.7285 65.1086 82.8705 65.3384 83.0186C65.5621 83.1552 65.7865 83.2972 66.0049 83.4553C66.4584 83.7453 66.9011 84.0622 67.3325 84.3897H67.3439C67.8958 84.805 68.4364 85.2371 68.9555 85.6906C69.4472 86.1112 69.9174 86.5486 70.3763 87.0075C70.4091 87.0349 70.4365 87.0617 70.4694 87.0946C71.8084 88.4282 73.0154 89.8871 74.0704 91.4613C74.8736 92.6522 75.5896 93.9089 76.2126 95.2204C77.9937 98.9735 78.9884 103.171 78.9884 107.608Z" fill="#FBC770"/>
</g>
<mask id="mask3_11_13" style="mask-type:luminance" maskUnits="userSpaceOnUse" x="0" y="0" width="100" height="101">
<path d="M0 50.9097C0 78.5239 22.3854 100.909 49.9997 100.909C77.6139 100.909 99.9993 78.5239 99.9993 50.9097C100 23.2955 77.6146 0.909363 50.0003 0.909363C22.3861 0.909363 0 23.2955 0 50.9097Z" fill="white"/>
</mask>
<g mask="url(#mask3_11_13)">
<path d="M50.0479 85.0723L50.0318 85.0998L50.0258 85.1105C50.0151 85.1212 50.0097 85.138 49.999 85.1487C48.4577 87.5152 45.917 88.7497 43.3595 88.7497C41.2663 88.7497 39.163 87.9245 37.5835 86.2311L34.6161 83.0514C35.1191 82.7285 35.6329 82.4285 36.1574 82.1438C36.1628 82.1384 36.1681 82.1384 36.1735 82.1384H36.1788V82.1331H36.1849C36.3758 82.0239 36.5613 81.9147 36.7475 81.8055C36.7911 81.7834 36.8292 81.7613 36.8735 81.7345C37.0262 81.6414 37.1789 81.5429 37.3323 81.4445C37.3812 81.4116 37.4308 81.3788 37.4797 81.352C37.5781 81.281 37.6766 81.2154 37.7744 81.1444C37.8072 81.1223 37.84 81.1002 37.8729 81.0787C38.037 80.9635 38.2011 80.849 38.3592 80.7291C38.3592 80.723 38.3592 80.723 38.3652 80.7291C38.3759 80.7123 38.3866 80.707 38.3973 80.6962C38.54 80.5864 38.682 80.4718 38.824 80.3573C38.8294 80.3627 38.8294 80.3627 38.8348 80.368C39.1462 80.6849 39.4684 80.991 39.8074 81.275C39.9715 81.423 40.1409 81.565 40.3104 81.6903C40.3158 81.7017 40.3158 81.7017 40.3211 81.6956C40.4745 81.8269 40.6326 81.9475 40.7914 82.062C40.8295 82.0895 40.8624 82.117 40.9005 82.1384C41.0586 82.259 41.2227 82.3735 41.3922 82.4773C41.7586 82.7285 42.1411 82.9583 42.5343 83.1659C42.7312 83.2751 42.9275 83.379 43.1298 83.4774C43.3374 83.5812 43.5451 83.6744 43.7527 83.7614C43.7802 83.7835 43.8077 83.7943 43.8345 83.7996C44.304 84.0073 44.7856 84.1821 45.2766 84.3408C45.4628 84.4011 45.6484 84.4554 45.8393 84.505C46.0088 84.5539 46.1782 84.5974 46.3477 84.6356C46.3859 84.6523 46.4241 84.6577 46.4683 84.663C47.0202 84.7997 47.5882 84.8982 48.1677 84.9584C48.3646 84.9859 48.5609 85.0073 48.7631 85.0181C49.1624 85.0569 49.5663 85.073 49.9762 85.073L50.0479 85.0723Z" fill="white"/>
</g>
<mask id="mask4_11_13" style="mask-type:luminance" maskUnits="userSpaceOnUse" x="0" y="0" width="100" height="101">
<path d="M0 50.9097C0 78.5239 22.3854 100.909 49.9997 100.909C77.6139 100.909 99.9993 78.5239 99.9993 50.9097C100 23.2955 77.6146 0.909363 50.0003 0.909363C22.3861 0.909363 0 23.2955 0 50.9097Z" fill="white"/>
</mask>
<g mask="url(#mask4_11_13)">
<path d="M65.4422 83.0922L62.519 86.2291C60.9395 87.9231 58.8356 88.7477 56.7376 88.7477C54.1688 88.7477 51.6113 87.5018 50.076 85.1084L50.0707 85.0977L50.0486 85.0703C54.4093 85.0649 58.3546 83.2617 61.1907 80.3707L61.1961 80.3653C61.5846 80.6882 61.9885 80.9882 62.4038 81.2669C62.448 81.2997 62.4862 81.3272 62.5297 81.3546C62.7267 81.4859 62.9283 81.6112 63.1306 81.7371C63.355 81.8738 63.5841 82.0051 63.8138 82.1303C63.852 82.1417 63.8795 82.1632 63.9123 82.1799C64.3932 82.4472 64.8682 82.7258 65.333 83.0212C65.3712 83.0433 65.404 83.0648 65.4422 83.0922Z" fill="white"/>
</g>
<mask id="mask5_11_13" style="mask-type:luminance" maskUnits="userSpaceOnUse" x="0" y="0" width="100" height="101">
<path d="M0 50.9097C0 78.5239 22.3854 100.909 49.9997 100.909C77.6139 100.909 99.9993 78.5239 99.9993 50.9097C100 23.2955 77.6146 0.909363 50.0003 0.909363C22.3861 0.909363 0 23.2955 0 50.9097Z" fill="white"/>
</mask>
<g mask="url(#mask5_11_13)">
<path d="M65.4858 18.9844C65.4858 22.6947 64.7429 26.2247 63.3925 29.4433C63.2726 29.7273 63.1527 30.006 63.0161 30.2846C60.3709 36.0446 55.7483 40.7114 50.0265 43.4323C50.0158 43.4323 50.0104 43.4376 49.9997 43.4437C46.4911 45.1049 42.5732 46.0333 38.4369 46.0333C35.8741 46.0333 33.393 45.6783 31.0432 45.0118C30.0324 44.7224 29.0484 44.3781 28.0925 43.9842H28.0872C27.972 43.9353 27.8628 43.8858 27.7536 43.8369C27.6605 43.7987 27.5734 43.7605 27.4857 43.7223C26.8955 42.733 26.3657 41.7001 25.9015 40.629C25.4145 39.4983 25.0046 38.3174 24.677 37.1043C24.0922 34.9353 23.7808 32.6398 23.7808 30.2846C23.7808 15.8094 35.5184 4.07172 49.9997 4.07172H50.0265C54.7154 4.07708 59.1142 5.31226 62.923 7.47652C63.0871 7.82015 63.2398 8.17048 63.3925 8.52549C63.8956 9.71647 64.3055 10.9409 64.6331 12.2083V12.2136C65.1904 14.3786 65.4858 16.646 65.4858 18.9844Z" fill="#141720"/>
</g>
<mask id="mask6_11_13" style="mask-type:luminance" maskUnits="userSpaceOnUse" x="0" y="0" width="100" height="101">
<path d="M0 50.9097C0 78.5239 22.3854 100.909 49.9997 100.909C77.6139 100.909 99.9993 78.5239 99.9993 50.9097C100 23.2955 77.6146 0.909363 50.0003 0.909363C22.3861 0.909363 0 23.2955 0 50.9097Z" fill="white"/>
</mask>
<g mask="url(#mask6_11_13)">
<path d="M76.2119 30.2852C76.2119 34.3673 75.2774 38.2309 73.6162 41.6732C69.0915 38.7333 65.5018 34.4764 63.3924 29.4439C62.0367 26.2253 61.2938 22.6953 61.2938 18.985C61.2938 15.2741 62.0367 11.744 63.3924 8.52543C63.4795 8.31778 63.5673 8.11616 63.6597 7.90851C71.1847 12.515 76.2119 20.815 76.2119 30.2852Z" fill="#141720"/>
</g>
<mask id="mask7_11_13" style="mask-type:luminance" maskUnits="userSpaceOnUse" x="0" y="0" width="100" height="101">
<path d="M0 50.9097C0 78.5239 22.3854 100.909 49.9997 100.909C77.6139 100.909 99.9993 78.5239 99.9993 50.9097C100 23.2955 77.6146 0.909363 50.0003 0.909363C22.3861 0.909363 0 23.2955 0 50.9097Z" fill="white"/>
</mask>
<g mask="url(#mask7_11_13)">
<path d="M72.2505 28.9683V45.6568C72.2505 45.8752 72.2452 46.0888 72.2398 46.3072C72.2338 46.5041 72.2284 46.695 72.2177 46.892C72.2123 47.0668 72.2009 47.2416 72.1849 47.4165C72.1795 47.5424 72.1688 47.6676 72.1574 47.7936C72.152 47.8699 72.1467 47.9409 72.136 48.0173C72.1246 48.154 72.1139 48.296 72.0918 48.4326C72.0703 48.6952 72.0375 48.9517 71.9993 49.2143C71.994 49.28 71.9826 49.3456 71.9719 49.4112C71.9551 49.5419 71.9337 49.6732 71.9116 49.8044V49.8205C71.9062 49.848 71.9009 49.8701 71.9009 49.8976C71.868 50.061 71.8406 50.2251 71.8131 50.3892C71.7642 50.6511 71.7153 50.9137 71.6604 51.1702C71.655 51.1816 71.655 51.1924 71.6497 51.2031C71.6436 51.2413 71.6383 51.2801 71.6276 51.3183C71.6222 51.329 71.6222 51.3397 71.6168 51.3511C71.5947 51.4656 71.5673 51.5802 71.5398 51.6894C71.5345 51.7168 71.5291 51.7389 71.5237 51.7664C71.513 51.826 71.5016 51.8863 71.4802 51.9466C71.4634 52.0451 71.436 52.1435 71.4146 52.2413C71.3978 52.2963 71.3871 52.3565 71.365 52.4115C71.3543 52.461 71.3382 52.5099 71.3268 52.5535C71.2123 53.0016 71.081 53.439 70.9443 53.8764C70.8787 54.0841 70.813 54.2857 70.742 54.4933C70.7367 54.5154 70.726 54.5375 70.7206 54.559C70.6603 54.7338 70.5947 54.9147 70.5344 55.0902C70.529 55.1009 70.529 55.1062 70.5237 55.117C70.5016 55.1719 70.4801 55.2261 70.458 55.2864C70.3924 55.4613 70.3267 55.6361 70.2557 55.8109C70.174 56.0246 70.0869 56.2322 69.9992 56.4399C69.9228 56.6254 69.8404 56.811 69.7587 56.9972C69.748 57.03 69.7312 57.0568 69.7205 57.0896C69.6274 57.2866 69.5403 57.4835 69.4472 57.6744C69.3541 57.8767 69.2557 58.079 69.1518 58.2813C69.1465 58.292 69.1411 58.2974 69.1357 58.3088C68.9442 58.6966 68.7365 59.0898 68.5289 59.4669L68.2341 59.9914C67.3928 61.4396 66.4584 62.8 65.4416 64.0573C65.3049 64.2375 65.1629 64.4124 65.0156 64.5818C64.8133 64.8277 64.6056 65.0681 64.398 65.3032C64.2231 65.4995 64.0429 65.7018 63.8567 65.8934C63.8514 65.9041 63.846 65.9094 63.8353 65.9202C63.3108 66.4835 62.7749 67.0187 62.2283 67.5218C62.1192 67.6309 62.0046 67.7294 61.8901 67.8332C61.7039 68.0027 61.5183 68.1661 61.3267 68.3249C61.1794 68.4562 61.0266 68.5814 60.8733 68.7074C60.4801 69.0296 60.0869 69.341 59.6876 69.6311C59.5235 69.7563 59.3541 69.8769 59.1853 69.9915C58.912 70.1884 58.6333 70.3739 58.354 70.5541C58.2013 70.658 58.0432 70.7564 57.8844 70.8495C57.857 70.8656 57.8349 70.8823 57.8081 70.8931C57.2775 71.2213 56.737 71.5214 56.2065 71.784C56.0698 71.855 55.9338 71.9206 55.7972 71.9863C55.6605 72.0519 55.5185 72.1169 55.3705 72.1825C55.1903 72.2649 55.0101 72.3413 54.8299 72.4123C54.7589 72.4451 54.6879 72.4726 54.6169 72.494C54.4033 72.5817 54.1849 72.6635 53.9719 72.7345C53.7039 72.8329 53.4306 72.9153 53.1634 72.9917C52.9772 73.0459 52.7863 73.0955 52.6 73.139C52.5893 73.1444 52.5786 73.1498 52.5619 73.1498C52.3763 73.194 52.1908 73.2375 52.0045 73.2703C51.9557 73.2811 51.9061 73.2918 51.8572 73.2978C51.7038 73.3246 51.5511 73.3521 51.3983 73.3688C51.1793 73.4016 50.9609 73.4284 50.7426 73.4398C50.6655 73.4505 50.5945 73.4559 50.5182 73.4559C50.3433 73.4666 50.1739 73.4726 50.0044 73.4726H49.983C49.8135 73.4726 49.644 73.4666 49.4746 73.4559C49.4089 73.4559 49.3433 73.4505 49.2776 73.4398C49.1249 73.4338 48.9661 73.4177 48.8027 73.3956C48.7699 73.3956 48.7317 73.3902 48.6989 73.3849C48.4966 73.3574 48.2943 73.3246 48.0866 73.2864C47.9118 73.259 47.737 73.2208 47.5568 73.1772C46.6224 72.9642 45.6605 72.642 44.6879 72.21C43.8573 71.8442 43.0153 71.4015 42.1793 70.8877C42.1304 70.8602 42.0869 70.8274 42.0373 70.8C41.6655 70.5709 41.2891 70.325 40.9227 70.0678C40.715 69.9205 40.5074 69.7731 40.2997 69.6197C39.6493 69.1448 39.0043 68.6257 38.3706 68.0683C38.1958 67.9096 38.0209 67.7508 37.8461 67.5874C37.6713 67.4286 37.4964 67.2645 37.327 67.1065C36.9224 66.7179 36.5292 66.3194 36.1521 65.8987C36.1246 65.8766 36.1032 65.8492 36.0811 65.8277C35.923 65.6583 35.7642 65.4834 35.6055 65.3032C35.1687 64.8109 34.7421 64.3032 34.3381 63.7727C34.1794 63.5817 34.032 63.3848 33.8847 63.1885C33.3327 62.4557 32.8076 61.6908 32.3159 60.8984C32.1846 60.6854 32.054 60.467 31.9281 60.254C31.7753 59.9968 31.6273 59.7348 31.4799 59.4723C31.2669 59.0898 31.0646 58.702 30.8684 58.3088C30.5509 57.6912 30.2615 57.0568 29.9936 56.4124C29.9279 56.259 29.8623 56.1063 29.808 55.9536C29.7203 55.7567 29.6439 55.5544 29.5729 55.3574C29.5401 55.265 29.5019 55.1719 29.4744 55.0788C29.3981 54.8825 29.3271 54.6856 29.2614 54.4886C29.1629 54.1993 29.0705 53.9039 28.9774 53.6091C28.8897 53.3251 28.8079 53.0404 28.7316 52.7511C28.6438 52.445 28.5621 52.1335 28.4911 51.8166C28.4857 51.7838 28.4743 51.751 28.469 51.7182C28.469 51.7075 28.4636 51.7021 28.4636 51.6907C28.3598 51.2647 28.2727 50.8273 28.1903 50.3906C28.1575 50.2264 28.1301 50.0623 28.1086 49.8929C28.0323 49.4668 27.9773 49.0301 27.9278 48.5927C27.901 48.4011 27.8842 48.2102 27.8681 48.0186C27.846 47.8164 27.83 47.6201 27.8186 47.4178C27.7918 47.0514 27.775 46.6803 27.7643 46.3085C27.759 46.0902 27.7529 45.8765 27.7529 45.6581V28.9683C27.7529 17.0941 37.059 7.38939 48.7806 6.75505C48.8027 6.74969 48.8188 6.74969 48.8409 6.74969C48.9936 6.74433 49.147 6.73897 49.2997 6.73362C49.5295 6.72759 49.7532 6.72223 49.983 6.72223H50.0044C50.2395 6.72223 50.4746 6.72759 50.7097 6.73362H50.7586C50.9228 6.73897 51.0869 6.74433 51.2503 6.75505H51.2671C51.3434 6.76041 51.4198 6.76644 51.4961 6.7718C51.6602 6.78251 51.8244 6.79323 51.9824 6.80998C52.0648 6.81534 52.1412 6.8207 52.2229 6.83208C52.2778 6.83744 52.3267 6.8428 52.3817 6.84816C53.2505 6.94127 54.1032 7.08327 54.9338 7.26882C56.382 7.59704 57.7752 8.0666 59.0975 8.66209C60.3327 9.21404 61.5076 9.87517 62.6055 10.6348C63.1192 10.9844 63.6109 11.3562 64.0865 11.7501C64.272 11.9028 64.4529 12.0555 64.6331 12.2089V12.2143C65.6874 13.1326 66.6547 14.1434 67.5127 15.2473C70.4419 18.979 72.207 23.6679 72.2452 28.7714C72.2505 28.8371 72.2505 28.9027 72.2505 28.9683Z" fill="#ECC19C"/>
</g>
<mask id="mask8_11_13" style="mask-type:luminance" maskUnits="userSpaceOnUse" x="0" y="0" width="100" height="101">
<path d="M0 50.9097C0 78.5239 22.3854 100.909 49.9997 100.909C77.6139 100.909 99.9993 78.5239 99.9993 50.9097C100 23.2955 77.6146 0.909363 50.0003 0.909363C22.3861 0.909363 0 23.2955 0 50.9097Z" fill="white"/>
</mask>
<g mask="url(#mask8_11_13)">
<path d="M76.2126 30.2853C76.2126 30.5807 76.2073 30.8701 76.1965 31.1648C76.1905 31.4495 76.1744 31.7389 76.1523 32.0229V32.0557C76.1363 32.3397 76.1088 32.6184 76.0813 32.897C76.0539 33.1817 76.0217 33.4657 75.9829 33.7497C75.9447 34.0337 75.9011 34.3184 75.8576 34.5971C75.808 34.8811 75.7591 35.1597 75.7042 35.4384C75.6989 35.4545 75.6935 35.4766 75.6935 35.4987C75.5843 36.0339 75.4584 36.5584 75.3164 37.0829C75.2347 37.389 75.1523 37.6897 75.0598 37.9905C74.9721 38.2906 74.8736 38.586 74.7698 38.8807C74.6773 39.154 74.5735 39.4273 74.4751 39.6952C74.4637 39.7173 74.4529 39.7388 74.4476 39.7609C74.333 40.0449 74.2178 40.3343 74.0926 40.6189C73.9445 40.974 73.7865 41.329 73.617 41.6733C73.1528 41.3725 72.6933 41.0557 72.2512 40.7167C72.0924 40.6022 71.9337 40.4877 71.781 40.3617C71.6115 40.2358 71.4474 40.1052 71.2839 39.9739C70.8191 39.5968 70.3656 39.2036 69.9282 38.7883C69.8083 38.6791 69.6877 38.5692 69.5678 38.4493C69.3822 38.2745 69.2021 38.0943 69.0212 37.9135C68.2783 37.1539 67.579 36.3561 66.934 35.5148C66.737 35.2636 66.5515 35.0124 66.366 34.7498C66.1851 34.504 66.0103 34.2528 65.8408 33.9956C65.262 33.1268 64.7315 32.2252 64.2506 31.2907C64.136 31.0724 64.0269 30.848 63.923 30.6189C63.8681 30.509 63.8139 30.3998 63.7643 30.2853C63.7643 30.2853 63.7589 30.2799 63.7589 30.2746C63.6337 30.0013 63.5077 29.7226 63.3932 29.444C63.2726 29.728 63.1527 30.0066 63.0161 30.2853C60.3709 36.0446 55.7483 40.7114 50.0272 43.433C50.0158 43.433 50.0104 43.4383 49.9997 43.4437C46.4911 45.1049 42.5732 46.0339 38.4369 46.0339C35.8741 46.0339 33.393 45.6789 31.0432 45.0118C30.0324 44.7224 29.0491 44.3781 28.0925 43.9849H28.0872C27.972 43.9353 27.8628 43.8864 27.7536 43.8375C27.6605 43.7987 27.5734 43.7605 27.4857 43.7223C26.8955 42.7336 26.3657 41.7007 25.9015 40.6297C25.4145 39.4983 25.0052 38.318 24.677 37.105C24.0922 34.9353 23.7808 32.6405 23.7808 30.2853C23.7808 15.81 35.5184 4.07239 49.9997 4.07239H50.0272C54.7154 4.07775 59.1142 5.31293 62.923 7.47652C63.1688 7.61317 63.4146 7.76054 63.6605 7.90857C71.1855 12.5151 76.2126 20.8151 76.2126 30.2853Z" fill="#141720"/>
</g>
</svg>
